<svg width="800" height="800" viewBox="0 0 800 800" fill="none" xmlns="http://www.w3.org/2000/svg">
<g clip-path="url(#clip0_1_1021)">
<path d="M400 0C620.916 0 800 179.095 800 400C800 620.928 620.916 800 400 800C179.084 800 0 620.928 0 400C0 179.095 179.084 0 400 0ZM218.867 424.953C225.864 467.472 252.142 572.053 353.8 572.053C427.344 572.053 493.867 571.497 527.153 530.019C554.97 495.359 551.478 447.491 529.297 411.292C513.103 384.884 505.456 379.783 510.723 372.762C515.648 366.203 520.869 358.131 525.023 348.744C534.316 349.005 548.425 350.164 557.539 353.302C567.198 356.603 575.911 343.489 569.103 335.711C564.027 329.923 558.345 325.495 551.597 322.289C575.425 312.842 584.741 282.859 583.095 271.792C580.764 256.038 567.341 252.52 562.097 264.784C557.22 276.159 551.586 285.997 527.106 281.108C514.606 250 483.794 227.97 447.739 227.97C400.591 227.97 362.369 265.602 362.369 312.014C362.369 321.33 364.347 334.055 367.186 342.411C406.58 434.35 284.505 408.972 266.145 396.069C229.747 370.455 209.908 370.455 218.867 424.953Z" fill="black"/>
</g>
<defs>
<clipPath id="clip0_1_1021">
<rect width="800" height="800" fill="white" transform="matrix(-1 0 0 1 800 0)"/>
</clipPath>
</defs>
</svg>
