<svg width="800" height="800" viewBox="0 0 800 800" fill="none" xmlns="http://www.w3.org/2000/svg">
<g clip-path="url(#clip0_2_2)">
<path d="M107.856 391.392C147.911 419.595 414.364 474.945 328.378 274.305C322.167 256.034 317.859 228.286 317.859 207.966C317.859 106.655 401.28 24.5234 504.172 24.5234C582.861 24.5234 650.106 72.5922 677.401 140.498C730.833 151.164 743.123 129.672 753.747 104.883C765.219 78.1328 794.519 85.7781 799.603 120.18C803.178 144.339 782.842 209.784 730.847 230.367C745.57 237.37 757.98 247.041 769.041 259.67C783.895 276.666 764.894 305.292 743.811 298.055C723.916 291.227 693.134 288.678 672.844 288.12C663.759 308.603 652.391 326.242 641.637 340.57C630.151 355.881 646.823 367.002 682.162 424.652C730.567 503.634 738.216 608.094 677.487 683.748C604.836 774.275 459.647 775.477 299.148 775.477C77.2765 775.477 19.9202 547.233 4.67021 454.452C-14.8876 335.472 28.4186 335.472 107.856 391.392ZM560.753 206.164C577.631 206.164 591.314 192.48 591.314 175.587C591.314 158.709 577.63 145.011 560.753 145.011C543.861 145.011 530.176 158.709 530.176 175.587C530.176 192.48 543.861 206.164 560.753 206.164Z" fill="#25c2a0"/>
</g>
<defs>
<clipPath id="clip0_2_2">
<rect width="800" height="800" fill="white"/>
</clipPath>
</defs>
</svg>

